<?xml version="1.0" encoding="UTF-8" standalone="no"?>
<!DOCTYPE svg PUBLIC "-//W3C//DTD SVG 1.1//EN"
 "http://www.w3.org/Graphics/SVG/1.1/DTD/svg11.dtd">
<!-- Generated by graphviz version 2.40.1 (20161225.0304)
 -->
<!-- Title: %0 Pages: 1 -->
<svg width="281pt" height="188pt"
 viewBox="0.00 0.00 280.99 188.00" xmlns="http://www.w3.org/2000/svg" xmlns:xlink="http://www.w3.org/1999/xlink">
<g id="graph0" class="graph" transform="scale(1 1) rotate(0) translate(4 184)">
<title>%0</title>
<polygon fill="#ffffff" stroke="transparent" points="-4,4 -4,-184 276.9901,-184 276.9901,4 -4,4"/>
<!-- /home/ouldeitn/phd/software/Chipwhisperer&#45;AES128&#45;S6LX9&#45;target/hdl_src/AES/SBox128_top.vhd -->
<g id="node1" class="node">
<title>/home/ouldeitn/phd/software/Chipwhisperer&#45;AES128&#45;S6LX9&#45;target/hdl_src/AES/SBox128_top.vhd</title>
<polygon fill="#d3d3d3" stroke="#069302" points="197.8557,-180 70.8581,-180 70.8581,-176 66.8581,-176 66.8581,-172 70.8581,-172 70.8581,-152 66.8581,-152 66.8581,-148 70.8581,-148 70.8581,-144 197.8557,-144 197.8557,-180"/>
<polyline fill="none" stroke="#069302" points="70.8581,-176 74.8581,-176 74.8581,-172 70.8581,-172 "/>
<polyline fill="none" stroke="#069302" points="70.8581,-152 74.8581,-152 74.8581,-148 70.8581,-148 "/>
<text text-anchor="middle" x="134.3569" y="-157.8" font-family="Helvetica,sans-Serif" font-size="14.00" fill="#000000">SBox128_top.vhd</text>
</g>
<!-- /home/ouldeitn/phd/software/Chipwhisperer&#45;AES128&#45;S6LX9&#45;target/hdl_src/AES/AddRoundKey.vhd -->
<g id="node2" class="node">
<title>/home/ouldeitn/phd/software/Chipwhisperer&#45;AES128&#45;S6LX9&#45;target/hdl_src/AES/AddRoundKey.vhd</title>
<polygon fill="#d3d3d3" stroke="#069302" points="132.571,-108 .1428,-108 .1428,-104 -3.8572,-104 -3.8572,-100 .1428,-100 .1428,-80 -3.8572,-80 -3.8572,-76 .1428,-76 .1428,-72 132.571,-72 132.571,-108"/>
<polyline fill="none" stroke="#069302" points=".1428,-104 4.1428,-104 4.1428,-100 .1428,-100 "/>
<polyline fill="none" stroke="#069302" points=".1428,-80 4.1428,-80 4.1428,-76 .1428,-76 "/>
<text text-anchor="middle" x="66.3569" y="-85.8" font-family="Helvetica,sans-Serif" font-size="14.00" fill="#000000">AddRoundKey.vhd</text>
</g>
<!-- /home/ouldeitn/phd/software/Chipwhisperer&#45;AES128&#45;S6LX9&#45;target/hdl_src/AES/SBox128_top.vhd&#45;&gt;/home/ouldeitn/phd/software/Chipwhisperer&#45;AES128&#45;S6LX9&#45;target/hdl_src/AES/AddRoundKey.vhd -->
<g id="edge2" class="edge">
<title>/home/ouldeitn/phd/software/Chipwhisperer&#45;AES128&#45;S6LX9&#45;target/hdl_src/AES/SBox128_top.vhd&#45;&gt;/home/ouldeitn/phd/software/Chipwhisperer&#45;AES128&#45;S6LX9&#45;target/hdl_src/AES/AddRoundKey.vhd</title>
<path fill="none" stroke="#000000" d="M117.1976,-143.8314C109.2058,-135.3694 99.5531,-125.1489 90.8153,-115.8971"/>
<polygon fill="#000000" stroke="#000000" points="93.158,-113.2802 83.7472,-108.4133 88.0689,-118.0866 93.158,-113.2802"/>
</g>
<!-- /home/ouldeitn/phd/software/Chipwhisperer&#45;AES128&#45;S6LX9&#45;target/hdl_src/AES/SubBytes.vhd -->
<g id="node4" class="node">
<title>/home/ouldeitn/phd/software/Chipwhisperer&#45;AES128&#45;S6LX9&#45;target/hdl_src/AES/SubBytes.vhd</title>
<polygon fill="#d3d3d3" stroke="#069302" points="253.725,-108 150.9888,-108 150.9888,-104 146.9888,-104 146.9888,-100 150.9888,-100 150.9888,-80 146.9888,-80 146.9888,-76 150.9888,-76 150.9888,-72 253.725,-72 253.725,-108"/>
<polyline fill="none" stroke="#069302" points="150.9888,-104 154.9888,-104 154.9888,-100 150.9888,-100 "/>
<polyline fill="none" stroke="#069302" points="150.9888,-80 154.9888,-80 154.9888,-76 150.9888,-76 "/>
<text text-anchor="middle" x="202.3569" y="-85.8" font-family="Helvetica,sans-Serif" font-size="14.00" fill="#000000">SubBytes.vhd</text>
</g>
<!-- /home/ouldeitn/phd/software/Chipwhisperer&#45;AES128&#45;S6LX9&#45;target/hdl_src/AES/SBox128_top.vhd&#45;&gt;/home/ouldeitn/phd/software/Chipwhisperer&#45;AES128&#45;S6LX9&#45;target/hdl_src/AES/SubBytes.vhd -->
<g id="edge1" class="edge">
<title>/home/ouldeitn/phd/software/Chipwhisperer&#45;AES128&#45;S6LX9&#45;target/hdl_src/AES/SBox128_top.vhd&#45;&gt;/home/ouldeitn/phd/software/Chipwhisperer&#45;AES128&#45;S6LX9&#45;target/hdl_src/AES/SubBytes.vhd</title>
<path fill="none" stroke="#000000" d="M151.5162,-143.8314C159.508,-135.3694 169.1607,-125.1489 177.8985,-115.8971"/>
<polygon fill="#000000" stroke="#000000" points="180.6449,-118.0866 184.9666,-108.4133 175.5558,-113.2802 180.6449,-118.0866"/>
</g>
<!-- /home/ouldeitn/phd/software/Chipwhisperer&#45;AES128&#45;S6LX9&#45;target/hdl_src/AES/AES_Constants.vhd -->
<g id="node3" class="node">
<title>/home/ouldeitn/phd/software/Chipwhisperer&#45;AES128&#45;S6LX9&#45;target/hdl_src/AES/AES_Constants.vhd</title>
<polygon fill="#d3d3d3" stroke="#069302" points="273.1236,-36 131.5902,-36 131.5902,-32 127.5902,-32 127.5902,-28 131.5902,-28 131.5902,-8 127.5902,-8 127.5902,-4 131.5902,-4 131.5902,0 273.1236,0 273.1236,-36"/>
<polyline fill="none" stroke="#069302" points="131.5902,-32 135.5902,-32 135.5902,-28 131.5902,-28 "/>
<polyline fill="none" stroke="#069302" points="131.5902,-8 135.5902,-8 135.5902,-4 131.5902,-4 "/>
<text text-anchor="middle" x="202.3569" y="-13.8" font-family="Helvetica,sans-Serif" font-size="14.00" fill="#000000">AES_Constants.vhd</text>
</g>
<!-- /home/ouldeitn/phd/software/Chipwhisperer&#45;AES128&#45;S6LX9&#45;target/hdl_src/AES/SubBytes.vhd&#45;&gt;/home/ouldeitn/phd/software/Chipwhisperer&#45;AES128&#45;S6LX9&#45;target/hdl_src/AES/AES_Constants.vhd -->
<g id="edge3" class="edge">
<title>/home/ouldeitn/phd/software/Chipwhisperer&#45;AES128&#45;S6LX9&#45;target/hdl_src/AES/SubBytes.vhd&#45;&gt;/home/ouldeitn/phd/software/Chipwhisperer&#45;AES128&#45;S6LX9&#45;target/hdl_src/AES/AES_Constants.vhd</title>
<path fill="none" stroke="#000000" d="M202.3569,-71.8314C202.3569,-64.131 202.3569,-54.9743 202.3569,-46.4166"/>
<polygon fill="#000000" stroke="#000000" points="205.857,-46.4132 202.3569,-36.4133 198.857,-46.4133 205.857,-46.4132"/>
</g>
</g>
</svg>
