<?xml version="1.0" encoding="UTF-8" standalone="no"?>
<!DOCTYPE svg PUBLIC "-//W3C//DTD SVG 1.1//EN"
 "http://www.w3.org/Graphics/SVG/1.1/DTD/svg11.dtd">
<!-- Generated by graphviz version 2.40.1 (20161225.0304)
 -->
<!-- Title: state transitions Pages: 1 -->
<svg width="284pt" height="352pt"
 viewBox="0.00 0.00 284.00 352.00" xmlns="http://www.w3.org/2000/svg" xmlns:xlink="http://www.w3.org/1999/xlink">
<g id="graph0" class="graph" transform="scale(1 1) rotate(0) translate(4 348)">
<title>state transitions</title>
<polygon fill="#ffffff" stroke="transparent" points="-4,4 -4,-348 280,-348 280,4 -4,4"/>
<g id="clust1" class="cluster state regular">
<title>cluster_nx_state</title>
<path fill="none" stroke="#000000" stroke-width="2" d="M20,-8C20,-8 256,-8 256,-8 262,-8 268,-14 268,-20 268,-20 268,-324 268,-324 268,-330 262,-336 256,-336 256,-336 20,-336 20,-336 14,-336 8,-330 8,-324 8,-324 8,-20 8,-20 8,-14 14,-8 20,-8"/>
<text text-anchor="start" x="115.8236" y="-317.2" font-family="Helvetica,sans-Serif" font-size="12.00" fill="#000000">nx_state</text>
</g>
<!-- nx_state -->
<!-- RESET_1 -->
<g id="node2" class="node state regular">
<title>RESET_1</title>
<polygon fill="#ffffff" fill-opacity="0.003922" stroke="transparent" stroke-width="2" points="127.5,-298 52.5,-298 52.5,-262 127.5,-262 127.5,-298"/>
<text text-anchor="start" x="63.8282" y="-276.2" font-family="Helvetica,sans-Serif" font-size="12.00" fill="#000000">RESET_1</text>
<path fill="none" stroke="#000000" stroke-width="2" d="M64.8333,-263C64.8333,-263 115.1667,-263 115.1667,-263 120.8333,-263 126.5,-268.6667 126.5,-274.3333 126.5,-274.3333 126.5,-285.6667 126.5,-285.6667 126.5,-291.3333 120.8333,-297 115.1667,-297 115.1667,-297 64.8333,-297 64.8333,-297 59.1667,-297 53.5,-291.3333 53.5,-285.6667 53.5,-285.6667 53.5,-274.3333 53.5,-274.3333 53.5,-268.6667 59.1667,-263 64.8333,-263"/>
</g>
<!-- RESET_2 -->
<g id="node3" class="node state regular">
<title>RESET_2</title>
<polygon fill="#ffffff" fill-opacity="0.003922" stroke="transparent" stroke-width="2" points="127.5,-216 52.5,-216 52.5,-180 127.5,-180 127.5,-216"/>
<text text-anchor="start" x="63.8282" y="-194.2" font-family="Helvetica,sans-Serif" font-size="12.00" fill="#000000">RESET_2</text>
<path fill="none" stroke="#000000" stroke-width="2" d="M64.8333,-181C64.8333,-181 115.1667,-181 115.1667,-181 120.8333,-181 126.5,-186.6667 126.5,-192.3333 126.5,-192.3333 126.5,-203.6667 126.5,-203.6667 126.5,-209.3333 120.8333,-215 115.1667,-215 115.1667,-215 64.8333,-215 64.8333,-215 59.1667,-215 53.5,-209.3333 53.5,-203.6667 53.5,-203.6667 53.5,-192.3333 53.5,-192.3333 53.5,-186.6667 59.1667,-181 64.8333,-181"/>
</g>
<!-- RESET_1&#45;&gt;RESET_2 -->
<g id="edge1" class="edge transition">
<title>RESET_1&#45;&gt;RESET_2</title>
<path fill="none" stroke="#000000" d="M90,-261.8015C90,-251.3976 90,-238.1215 90,-226.3768"/>
<polygon fill="#000000" stroke="#000000" points="93.5001,-226.1476 90,-216.1476 86.5001,-226.1476 93.5001,-226.1476"/>
<text text-anchor="middle" x="91.3895" y="-236" font-family="Helvetica,sans-Serif" font-size="10.00" fill="#000000"> </text>
</g>
<!-- IDLE -->
<g id="node4" class="node state regular">
<title>IDLE</title>
<polygon fill="#ffffff" fill-opacity="0.003922" stroke="transparent" stroke-width="2" points="118,-134 62,-134 62,-98 118,-98 118,-134"/>
<text text-anchor="start" x="76.6644" y="-112.2" font-family="Helvetica,sans-Serif" font-size="12.00" fill="#000000">IDLE</text>
<path fill="none" stroke="#000000" stroke-width="2" d="M74.3333,-99C74.3333,-99 105.6667,-99 105.6667,-99 111.3333,-99 117,-104.6667 117,-110.3333 117,-110.3333 117,-121.6667 117,-121.6667 117,-127.3333 111.3333,-133 105.6667,-133 105.6667,-133 74.3333,-133 74.3333,-133 68.6667,-133 63,-127.3333 63,-121.6667 63,-121.6667 63,-110.3333 63,-110.3333 63,-104.6667 68.6667,-99 74.3333,-99"/>
</g>
<!-- RESET_2&#45;&gt;IDLE -->
<g id="edge2" class="edge transition">
<title>RESET_2&#45;&gt;IDLE</title>
<path fill="none" stroke="#000000" d="M90,-179.8015C90,-169.3976 90,-156.1215 90,-144.3768"/>
<polygon fill="#000000" stroke="#000000" points="93.5001,-144.1476 90,-134.1476 86.5001,-144.1476 93.5001,-144.1476"/>
<text text-anchor="middle" x="91.3895" y="-154" font-family="Helvetica,sans-Serif" font-size="10.00" fill="#000000"> </text>
</g>
<!-- IDLE&#45;&gt;IDLE -->
<g id="edge4" class="edge transition">
<title>IDLE&#45;&gt;IDLE</title>
<path fill="none" stroke="#000000" d="M118.0183,-120.8247C129.888,-121.1883 140,-119.5801 140,-116 140,-113.5387 135.2205,-112.0094 128.3762,-111.4121"/>
<polygon fill="#000000" stroke="#000000" points="128.0957,-107.9049 118.0183,-111.1753 127.9356,-114.903 128.0957,-107.9049"/>
<text text-anchor="start" x="140" y="-113" font-family="Helvetica,sans-Serif" font-size="10.00" fill="#000000">not (START = &#39;1&#39;) &#160;&#160;</text>
</g>
<!-- PROCESSING -->
<g id="node5" class="node state regular">
<title>PROCESSING</title>
<polygon fill="#ffffff" fill-opacity="0.003922" stroke="transparent" stroke-width="2" points="118,-52 16,-52 16,-16 118,-16 118,-52"/>
<text text-anchor="start" x="26.998" y="-30.2" font-family="Helvetica,sans-Serif" font-size="12.00" fill="#000000">PROCESSING</text>
<path fill="none" stroke="#000000" stroke-width="2" d="M28.3333,-17C28.3333,-17 105.6667,-17 105.6667,-17 111.3333,-17 117,-22.6667 117,-28.3333 117,-28.3333 117,-39.6667 117,-39.6667 117,-45.3333 111.3333,-51 105.6667,-51 105.6667,-51 28.3333,-51 28.3333,-51 22.6667,-51 17,-45.3333 17,-39.6667 17,-39.6667 17,-28.3333 17,-28.3333 17,-22.6667 22.6667,-17 28.3333,-17"/>
</g>
<!-- IDLE&#45;&gt;PROCESSING -->
<g id="edge3" class="edge transition">
<title>IDLE&#45;&gt;PROCESSING</title>
<path fill="none" stroke="#000000" d="M71.3921,-97.8618C67.362,-92.8196 63.666,-87.0532 61.514,-81 59.4338,-75.1487 59.0604,-68.6548 59.5673,-62.4081"/>
<polygon fill="#000000" stroke="#000000" points="63.0634,-62.6981 61.1054,-52.2858 56.1428,-61.6465 63.0634,-62.6981"/>
<text text-anchor="start" x="61" y="-72" font-family="Helvetica,sans-Serif" font-size="10.00" fill="#000000">START = &#39;1&#39; &#160;&#160;</text>
</g>
<!-- PROCESSING&#45;&gt;IDLE -->
<g id="edge5" class="edge transition">
<title>PROCESSING&#45;&gt;IDLE</title>
<path fill="none" stroke="#000000" d="M109.1167,-52.0503C115.4808,-56.6401 121.1842,-62.2406 125,-69 129.098,-76.2592 126.9872,-83.6864 122.2222,-90.4304"/>
<polygon fill="#000000" stroke="#000000" points="119.5674,-88.1494 115.6224,-97.9824 124.8383,-92.7557 119.5674,-88.1494"/>
<text text-anchor="start" x="127" y="-72" font-family="Helvetica,sans-Serif" font-size="10.00" fill="#000000">OPN_COUNT = &quot;11&quot; &#160;&#160;</text>
</g>
<!-- PROCESSING&#45;&gt;PROCESSING -->
<g id="edge6" class="edge transition">
<title>PROCESSING&#45;&gt;PROCESSING</title>
<path fill="none" stroke="#000000" d="M118.1677,-38.7988C130.6849,-38.4434 140,-36.8438 140,-34 140,-32.0005 135.3948,-30.6161 128.3092,-29.8467"/>
<polygon fill="#000000" stroke="#000000" points="128.3699,-26.3436 118.1677,-29.2012 127.9252,-33.3294 128.3699,-26.3436"/>
<text text-anchor="start" x="140" y="-31" font-family="Helvetica,sans-Serif" font-size="10.00" fill="#000000">not (OPN_COUNT = &quot;11&quot;) &#160;&#160;</text>
</g>
</g>
</svg>
